<svg width="191" height="58" viewBox="0 0 191 58" fill="none" xmlns="http://www.w3.org/2000/svg">
<rect x="0.5" y="0.697754" width="190" height="56" rx="6.56329" stroke="#A6AEB8"/>
<path d="M124.84 27.6197V30.7255H122.894V32.7623H124.84V39.6829C124.84 42.046 125.909 42.9912 128.599 42.9912C129.072 42.9912 129.522 42.935 129.916 42.8675V40.8532C129.578 40.8869 129.364 40.9095 128.993 40.9095C127.789 40.9095 127.26 40.3468 127.26 39.064V32.7623H129.916V30.7255H127.26V27.6197H124.84Z" fill="#29394A"/>
<path d="M136.767 43.16C140.345 43.16 142.54 40.7632 142.54 36.7909C142.54 32.8411 140.334 30.433 136.767 30.433C133.188 30.433 130.983 32.8411 130.983 36.7909C130.983 40.7632 133.177 43.16 136.767 43.16ZM136.767 41.0107C134.662 41.0107 133.481 39.4691 133.481 36.7909C133.481 34.1352 134.662 32.5823 136.767 32.5823C138.86 32.5823 140.053 34.1352 140.053 36.7909C140.053 39.4578 138.86 41.0107 136.767 41.0107Z" fill="#29394A"/>
<path d="M144.417 42.9237H146.836V35.6881C146.836 33.9664 148.13 32.8073 149.965 32.8073C150.392 32.8073 151.112 32.8861 151.315 32.9536V30.568C151.056 30.5005 150.595 30.4667 150.235 30.4667C148.637 30.4667 147.275 31.3444 146.926 32.5485H146.746V30.6693H144.417V42.9237Z" fill="#29394A"/>
<path d="M157.322 32.4923C159.112 32.4923 160.282 33.7413 160.338 35.6656H154.149C154.284 33.7526 155.533 32.4923 157.322 32.4923ZM160.327 39.6154C159.877 40.5719 158.875 41.1008 157.412 41.1008C155.477 41.1008 154.228 39.7391 154.149 37.5898V37.4548H162.802V36.6108C162.802 32.7623 160.743 30.433 157.334 30.433C153.879 30.433 151.685 32.9199 151.685 36.8359C151.685 40.7519 153.834 43.16 157.345 43.16C160.147 43.16 162.105 41.8097 162.656 39.6154H160.327Z" fill="#29394A"/>
<path d="M108.974 38.3984C109.161 41.4075 111.669 43.3319 115.401 43.3319C119.39 43.3319 121.886 41.3142 121.886 38.0951C121.886 35.5642 120.463 34.1646 117.011 33.3598L115.156 32.9049C112.963 32.3917 112.077 31.7036 112.077 30.5023C112.077 28.986 113.453 27.9946 115.518 27.9946C117.477 27.9946 118.83 28.9627 119.075 30.5139H121.618C121.466 27.6797 118.97 25.6853 115.553 25.6853C111.879 25.6853 109.429 27.6797 109.429 30.6772C109.429 33.1498 110.817 34.6194 113.861 35.3309L116.031 35.8557C118.259 36.3806 119.238 37.1504 119.238 38.4333C119.238 39.9262 117.699 41.0109 115.599 41.0109C113.348 41.0109 111.785 39.9962 111.564 38.3984H108.974Z" fill="#29394A"/>
<path d="M83.9122 30.4667C82.2467 30.4667 80.8064 31.2994 80.0637 32.6948H79.8836V30.6693H77.5543V46.9973H79.9736V41.067H80.1649C80.8064 42.3611 82.1905 43.1263 83.9347 43.1263C87.0292 43.1263 88.9985 40.6844 88.9985 36.7909C88.9985 32.8974 87.0292 30.4667 83.9122 30.4667ZM83.2257 40.9545C81.2002 40.9545 79.9286 39.3565 79.9286 36.8021C79.9286 34.2365 81.2002 32.6385 83.237 32.6385C85.285 32.6385 86.5116 34.2027 86.5116 36.7909C86.5116 39.3903 85.285 40.9545 83.2257 40.9545Z" fill="#29394A"/>
<path d="M97.4643 30.4667C95.7989 30.4667 94.3585 31.2994 93.6158 32.6948H93.4358V30.6693H91.1064V46.9973H93.5258V41.067H93.7171C94.3585 42.3611 95.7426 43.1263 97.4868 43.1263C100.581 43.1263 102.551 40.6844 102.551 36.7909C102.551 32.8974 100.581 30.4667 97.4643 30.4667ZM96.7779 40.9545C94.7524 40.9545 93.4808 39.3565 93.4808 36.8021C93.4808 34.2365 94.7524 32.6385 96.7891 32.6385C98.8372 32.6385 100.064 34.2027 100.064 36.7909C100.064 39.3903 98.8372 40.9545 96.7779 40.9545Z" fill="#29394A"/>
<path d="M73.2135 42.9237H75.9893L69.9127 26.0935H67.1019L61.0253 42.9237H63.7078L65.2591 38.4567H71.6739L73.2135 42.9237ZM68.3732 29.1493H68.5715L71.0091 36.264H65.9239L68.3732 29.1493Z" fill="#29394A"/>
<path d="M62.6503 13.3995V21.5185H65.5817C68.001 21.5185 69.402 20.0275 69.402 17.4337C69.402 14.8792 67.9898 13.3995 65.5817 13.3995H62.6503ZM63.9106 14.5473H65.441C67.1233 14.5473 68.1192 15.6163 68.1192 17.4505C68.1192 19.3129 67.1402 20.3707 65.441 20.3707H63.9106V14.5473Z" fill="#29394A"/>
<path d="M73.6928 21.6366C75.482 21.6366 76.5792 20.4382 76.5792 18.4521C76.5792 16.4772 75.4764 15.2731 73.6928 15.2731C71.9036 15.2731 70.8008 16.4772 70.8008 18.4521C70.8008 20.4382 71.8979 21.6366 73.6928 21.6366ZM73.6928 20.562C72.6406 20.562 72.0499 19.7912 72.0499 18.4521C72.0499 17.1242 72.6406 16.3478 73.6928 16.3478C74.7393 16.3478 75.3357 17.1242 75.3357 18.4521C75.3357 19.7855 74.7393 20.562 73.6928 20.562Z" fill="#29394A"/>
<path d="M85.9225 15.3913H84.7128L83.6213 20.0668H83.5256L82.2653 15.3913H81.1062L79.8459 20.0668H79.7559L78.6587 15.3913H77.4321L79.1201 21.5185H80.3635L81.6239 17.006H81.7195L82.9855 21.5185H84.2402L85.9225 15.3913Z" fill="#29394A"/>
<path d="M87.3156 21.5185H88.5253V17.9344C88.5253 16.9779 89.0936 16.3815 89.9882 16.3815C90.8828 16.3815 91.3104 16.871 91.3104 17.8556V21.5185H92.5201V17.5518C92.5201 16.0946 91.7661 15.2731 90.3989 15.2731C89.4762 15.2731 88.8685 15.6838 88.5703 16.3646H88.4803V15.3913H87.3156V21.5185Z" fill="#29394A"/>
<path d="M94.4252 21.5185H95.6349V13H94.4252V21.5185Z" fill="#29394A"/>
<path d="M100.184 21.6366C101.974 21.6366 103.071 20.4382 103.071 18.4521C103.071 16.4772 101.968 15.2731 100.184 15.2731C98.3953 15.2731 97.2925 16.4772 97.2925 18.4521C97.2925 20.4382 98.3896 21.6366 100.184 21.6366ZM100.184 20.562C99.1323 20.562 98.5415 19.7912 98.5415 18.4521C98.5415 17.1242 99.1323 16.3478 100.184 16.3478C101.231 16.3478 101.827 17.1242 101.827 18.4521C101.827 19.7855 101.231 20.562 100.184 20.562Z" fill="#29394A"/>
<path d="M106.675 20.6014C106.017 20.6014 105.539 20.2807 105.539 19.7293C105.539 19.1891 105.921 18.9022 106.765 18.8459L108.262 18.7503V19.2623C108.262 20.0218 107.587 20.6014 106.675 20.6014ZM106.366 21.6198C107.17 21.6198 107.84 21.2709 108.206 20.6576H108.301V21.5185H109.466V17.3324C109.466 16.0383 108.599 15.2731 107.063 15.2731C105.674 15.2731 104.683 15.9483 104.56 17.0004H105.73C105.865 16.5672 106.332 16.3196 107.007 16.3196C107.834 16.3196 108.262 16.6853 108.262 17.3324V17.8613L106.602 17.9569C105.145 18.0469 104.323 18.6827 104.323 19.7855C104.323 20.9052 105.184 21.6198 106.366 21.6198Z" fill="#29394A"/>
<path d="M113.571 21.6198C114.415 21.6198 115.13 21.2203 115.495 20.5507H115.591V21.5185H116.75V13H115.54V16.3646H115.45C115.118 15.6895 114.409 15.29 113.571 15.29C112.024 15.29 111.028 16.5165 111.028 18.4521C111.028 20.3932 112.012 21.6198 113.571 21.6198ZM113.914 16.3759C114.927 16.3759 115.563 17.1805 115.563 18.4577C115.563 19.7405 114.933 20.5338 113.914 20.5338C112.89 20.5338 112.277 19.7518 112.277 18.4521C112.277 17.1636 112.896 16.3759 113.914 16.3759Z" fill="#29394A"/>
<path d="M124.594 21.6366C126.384 21.6366 127.481 20.4382 127.481 18.4521C127.481 16.4772 126.378 15.2731 124.594 15.2731C122.805 15.2731 121.702 16.4772 121.702 18.4521C121.702 20.4382 122.8 21.6366 124.594 21.6366ZM124.594 20.562C123.542 20.562 122.951 19.7912 122.951 18.4521C122.951 17.1242 123.542 16.3478 124.594 16.3478C125.641 16.3478 126.237 17.1242 126.237 18.4521C126.237 19.7855 125.641 20.562 124.594 20.562Z" fill="#29394A"/>
<path d="M129.082 21.5185H130.292V17.9344C130.292 16.9779 130.86 16.3815 131.755 16.3815C132.649 16.3815 133.077 16.871 133.077 17.8556V21.5185H134.287V17.5518C134.287 16.0946 133.533 15.2731 132.165 15.2731C131.243 15.2731 130.635 15.6838 130.337 16.3646H130.247V15.3913H129.082V21.5185Z" fill="#29394A"/>
<path d="M139.858 13.8665V15.4194H138.884V16.4378H139.858V19.8981C139.858 21.0796 140.392 21.5522 141.737 21.5522C141.973 21.5522 142.198 21.5241 142.395 21.4903V20.4832C142.227 20.5001 142.12 20.5113 141.934 20.5113C141.332 20.5113 141.068 20.23 141.068 19.5886V16.4378H142.395V15.4194H141.068V13.8665H139.858Z" fill="#29394A"/>
<path d="M144.019 21.5185H145.229V17.94C145.229 17.0117 145.78 16.3871 146.771 16.3871C147.626 16.3871 148.082 16.8823 148.082 17.8613V21.5185H149.291V17.5631C149.291 16.1058 148.487 15.2787 147.181 15.2787C146.259 15.2787 145.611 15.6895 145.313 16.3759H145.218V13H144.019V21.5185Z" fill="#29394A"/>
<path d="M153.655 16.3027C154.55 16.3027 155.135 16.9273 155.163 17.8894H152.068C152.136 16.9329 152.76 16.3027 153.655 16.3027ZM155.157 19.8643C154.932 20.3425 154.432 20.607 153.7 20.607C152.732 20.607 152.108 19.9262 152.068 18.8515V18.784H156.395V18.362C156.395 16.4378 155.366 15.2731 153.661 15.2731C151.933 15.2731 150.836 16.5165 150.836 18.4746C150.836 20.4326 151.911 21.6366 153.666 21.6366C155.067 21.6366 156.046 20.9615 156.322 19.8643H155.157Z" fill="#29394A"/>
<path d="M47.8979 29.1113C47.9272 26.8324 49.151 24.6761 51.0925 23.4825C49.8677 21.7333 47.8163 20.6242 45.6819 20.5575C43.4054 20.3185 41.1985 21.9197 40.0385 21.9197C38.856 21.9197 37.0699 20.5812 35.1466 20.6208C32.6397 20.7018 30.3026 22.1271 29.0829 24.3188C26.4611 28.8581 28.4167 35.5293 30.9282 39.1985C32.1848 40.9952 33.6533 43.0022 35.5749 42.931C37.4552 42.853 38.1575 41.732 40.4273 41.732C42.676 41.732 43.3349 42.931 45.2954 42.8858C47.3131 42.853 48.5844 41.0811 49.7969 39.2673C50.6997 37.9871 51.3944 36.5722 51.8553 35.075C49.4841 34.0721 47.9006 31.6858 47.8979 29.1113Z" fill="#29394A"/>
<path d="M44.1947 18.1444C45.2948 16.8237 45.8368 15.1262 45.7056 13.4124C44.0248 13.5889 42.4722 14.3922 41.3572 15.6622C40.2669 16.9031 39.6995 18.5707 39.8067 20.2191C41.4881 20.2364 43.1411 19.4549 44.1947 18.1444Z" fill="#29394A"/>
</svg>
