<svg width="72" height="72" viewBox="0 0 72 72" fill="none" xmlns="http://www.w3.org/2000/svg">
<g clip-path="url(#clip0_8470_397)">
<rect width="72" height="72" rx="8" fill="url(#paint0_linear_8470_397)"/>
<circle opacity="0.3" cx="36" cy="35.6724" r="24" fill="url(#paint1_linear_8470_397)"/>
<path d="M36 18C44.8569 18 52 25.4199 52 34.6199C52 43.82 44.8569 51.2399 36 51.2399" stroke="white" stroke-width="2" stroke-linecap="round" stroke-linejoin="round"/>
<path d="M36 51.2399C27.1431 51.2399 20 43.82 20 34.6199C20 25.4199 27.1431 18 36 18" stroke="white" stroke-width="2" stroke-linecap="round" stroke-linejoin="round"/>
<path fill-rule="evenodd" clip-rule="evenodd" d="M32.7431 19.9575C27.6053 28.8676 27.6053 40.3742 32.7431 49.2843C34.2471 51.8936 37.7547 51.8936 39.2587 49.2843C44.3964 40.3742 44.3964 28.8676 39.2587 19.9575C37.7529 17.3482 34.2471 17.3482 32.7431 19.9575Z" stroke="white" stroke-width="2" stroke-linecap="round" stroke-linejoin="round"/>
<path d="M21.7955 26.9709C30.4924 29.7613 41.5075 29.7613 50.2026 26.9709" stroke="white" stroke-width="2" stroke-linecap="round" stroke-linejoin="round"/>
<path d="M50.2045 42.2688C41.5076 39.4784 30.4925 39.4784 21.7974 42.2688" stroke="white" stroke-width="2" stroke-linecap="round" stroke-linejoin="round"/>
</g>
<defs>
<linearGradient id="paint0_linear_8470_397" x1="-34" y1="82.1724" x2="123.5" y2="-0.327633" gradientUnits="userSpaceOnUse">
<stop stop-color="#07BCFF"/>
<stop offset="1" stop-color="#79ECAA" stop-opacity="0"/>
</linearGradient>
<linearGradient id="paint1_linear_8470_397" x1="36" y1="11.6724" x2="12" y2="59.6724" gradientUnits="userSpaceOnUse">
<stop stop-color="white"/>
<stop offset="1" stop-color="white" stop-opacity="0"/>
</linearGradient>
<clipPath id="clip0_8470_397">
<rect width="72" height="72" fill="white"/>
</clipPath>
</defs>
</svg>
