<svg width="72" height="72" viewBox="0 0 72 72" fill="none" xmlns="http://www.w3.org/2000/svg">
<g clip-path="url(#clip0_8470_397)">
<rect width="72" height="72" rx="8" fill="url(#paint0_linear_8470_397)"/>
<circle opacity="0.3" cx="36" cy="35.6724" r="24" fill="url(#paint1_linear_8470_397)"/>
<path fill-rule="evenodd" clip-rule="evenodd" d="M43.9166 36.6722C39.6938 41.0549 39.6938 48.1213 43.9166 52.504C48.1393 48.1229 48.1393 41.0549 43.9166 36.6722Z" stroke="white" stroke-width="2.02042" stroke-linecap="round" stroke-linejoin="round"/>
<path d="M21.75 28.7557H50.25" stroke="white" stroke-width="2.02042" stroke-linecap="round" stroke-linejoin="round"/>
<path d="M32.1525 35.089H28.0834" stroke="white" stroke-width="2.02042" stroke-linecap="round" stroke-linejoin="round"/>
<path d="M31.25 44.589H26.5C23.8764 44.589 21.75 42.4626 21.75 39.839V27.1724C21.75 24.5488 23.8764 22.4224 26.5 22.4224H45.5C48.1236 22.4224 50.25 24.5488 50.25 27.1724V33.5057" stroke="white" stroke-width="2.02042" stroke-linecap="round" stroke-linejoin="round"/>
<path fill-rule="evenodd" clip-rule="evenodd" d="M43.9167 36.6724C39.6939 41.055 39.6939 48.1214 43.9167 52.5041C48.1394 48.123 48.1394 41.055 43.9167 36.6724Z" stroke="white" stroke-width="2.02042" stroke-linecap="round" stroke-linejoin="round"/>
<path fill-rule="evenodd" clip-rule="evenodd" d="M51.8333 44.589C51.8333 48.9717 48.2993 52.5057 43.9167 52.5057C39.534 52.5057 36 48.9717 36 44.589C36 40.2064 39.534 36.6724 43.9167 36.6724C48.2993 36.6724 51.8333 40.2064 51.8333 44.589Z" stroke="white" stroke-width="2.02042" stroke-linecap="round" stroke-linejoin="round"/>
<path d="M36.0033 44.589H51.8303" stroke="white" stroke-width="2.02042" stroke-linecap="round" stroke-linejoin="round"/>
</g>
<defs>
<linearGradient id="paint0_linear_8470_397" x1="-34" y1="82.1724" x2="123.5" y2="-0.327633" gradientUnits="userSpaceOnUse">
<stop stop-color="#07BCFF"/>
<stop offset="1" stop-color="#79ECAA" stop-opacity="0"/>
</linearGradient>
<linearGradient id="paint1_linear_8470_397" x1="36" y1="11.6724" x2="12" y2="59.6724" gradientUnits="userSpaceOnUse">
<stop stop-color="white"/>
<stop offset="1" stop-color="white" stop-opacity="0"/>
</linearGradient>
<clipPath id="clip0_8470_397">
<rect width="72" height="72" fill="white"/>
</clipPath>
</defs>
</svg>
