<svg width="72" height="72" viewBox="0 0 72 72" fill="none" xmlns="http://www.w3.org/2000/svg">
<g clip-path="url(#clip0_8470_397)">
<rect width="72" height="72" rx="8" fill="url(#paint0_linear_8470_397)"/>
<circle opacity="0.3" cx="36" cy="35.6724" r="24" fill="url(#paint1_linear_8470_397)"/>
<path d="M25.9604 23.7048C28.6736 21.4189 32.1735 20.0398 36 20.0398C44.6344 20.0398 51.6325 27.038 51.6325 35.6723C51.6325 38.1857 51.0246 40.5531 49.9703 42.6566L45.3135 40.3291" stroke="white" stroke-width="2.10294" stroke-linecap="round" stroke-linejoin="round"/>
<path d="M46.0396 47.6399C43.3265 49.9258 39.8266 51.3049 36.0001 51.3049C27.3657 51.3049 20.3676 44.305 20.3676 35.6724C20.3676 33.159 20.9755 30.7916 22.0298 28.6881L26.6866 31.0156" stroke="white" stroke-width="2.10294" stroke-linecap="round" stroke-linejoin="round"/>
<path d="M36.0001 26.9877V29.1589" stroke="white" stroke-width="2.10294" stroke-linecap="round" stroke-linejoin="round"/>
<path d="M36.0001 44.3571V42.1859" stroke="white" stroke-width="2.10294" stroke-linecap="round" stroke-linejoin="round"/>
<path d="M40.3199 32.1985C40.207 30.5032 38.8087 29.1588 37.0857 29.1588H34.7061C33.0212 29.1588 31.6577 30.5241 31.6577 32.2072C31.6577 33.6054 32.6096 34.8247 33.9644 35.1652L38.034 36.1865C39.3906 36.5269 40.3407 37.7463 40.3407 39.1445C40.3407 40.8294 38.9755 42.1929 37.2924 42.1929H34.9128C33.1862 42.1929 31.788 40.845 31.6768 39.1463" stroke="white" stroke-width="2.10294" stroke-linecap="round" stroke-linejoin="round"/>
</g>
<defs>
<linearGradient id="paint0_linear_8470_397" x1="-34" y1="82.1724" x2="123.5" y2="-0.327633" gradientUnits="userSpaceOnUse">
<stop stop-color="#07BCFF"/>
<stop offset="1" stop-color="#79ECAA" stop-opacity="0"/>
</linearGradient>
<linearGradient id="paint1_linear_8470_397" x1="36" y1="11.6724" x2="12" y2="59.6724" gradientUnits="userSpaceOnUse">
<stop stop-color="white"/>
<stop offset="1" stop-color="white" stop-opacity="0"/>
</linearGradient>
<clipPath id="clip0_8470_397">
<rect width="72" height="72" fill="white"/>
</clipPath>
</defs>
</svg>
